<mxfile host="app.diagrams.net" agent="Mozilla/5.0 (Windows NT 10.0; Win64; x64) AppleWebKit/537.36 (KHTML, like Gecko) Chrome/135.0.0.0 Safari/537.36" version="26.0.6">
  <diagram name="Page-1" id="rcz7cRNAs8h5jrX54aXr">
    <mxGraphModel grid="1" page="1" gridSize="10" guides="1" tooltips="1" connect="1" arrows="1" fold="1" pageScale="1" pageWidth="827" pageHeight="1169" math="0" shadow="0">
      <root>
        <mxCell id="0" />
        <mxCell id="1" parent="0" />
        <mxCell id="9uFA7VPY6ay3hv91fx22-1" value="Personne" style="swimlane;fontStyle=0;childLayout=stackLayout;horizontal=1;startSize=26;fillColor=none;horizontalStack=0;resizeParent=1;resizeParentMax=0;resizeLast=0;collapsible=1;marginBottom=0;whiteSpace=wrap;html=1;" vertex="1" parent="1">
          <mxGeometry x="87" y="330" width="140" height="130" as="geometry" />
        </mxCell>
        <mxCell id="9uFA7VPY6ay3hv91fx22-2" value="Nom: String" style="text;strokeColor=none;fillColor=none;align=left;verticalAlign=top;spacingLeft=4;spacingRight=4;overflow=hidden;rotatable=0;points=[[0,0.5],[1,0.5]];portConstraint=eastwest;whiteSpace=wrap;html=1;" vertex="1" parent="9uFA7VPY6ay3hv91fx22-1">
          <mxGeometry y="26" width="140" height="26" as="geometry" />
        </mxCell>
        <mxCell id="9uFA7VPY6ay3hv91fx22-3" value="Prenom: String" style="text;strokeColor=none;fillColor=none;align=left;verticalAlign=top;spacingLeft=4;spacingRight=4;overflow=hidden;rotatable=0;points=[[0,0.5],[1,0.5]];portConstraint=eastwest;whiteSpace=wrap;html=1;" vertex="1" parent="9uFA7VPY6ay3hv91fx22-1">
          <mxGeometry y="52" width="140" height="26" as="geometry" />
        </mxCell>
        <mxCell id="9uFA7VPY6ay3hv91fx22-4" value="DateNaissance: Date" style="text;strokeColor=none;fillColor=none;align=left;verticalAlign=top;spacingLeft=4;spacingRight=4;overflow=hidden;rotatable=0;points=[[0,0.5],[1,0.5]];portConstraint=eastwest;whiteSpace=wrap;html=1;" vertex="1" parent="9uFA7VPY6ay3hv91fx22-1">
          <mxGeometry y="78" width="140" height="26" as="geometry" />
        </mxCell>
        <mxCell id="sODCTmRWU-tELfm5_XwF-7" value="Email: String" style="text;strokeColor=none;fillColor=none;align=left;verticalAlign=top;spacingLeft=4;spacingRight=4;overflow=hidden;rotatable=0;points=[[0,0.5],[1,0.5]];portConstraint=eastwest;whiteSpace=wrap;html=1;" vertex="1" parent="9uFA7VPY6ay3hv91fx22-1">
          <mxGeometry y="104" width="140" height="26" as="geometry" />
        </mxCell>
        <mxCell id="sODCTmRWU-tELfm5_XwF-1" value="Extends" style="endArrow=block;endSize=16;endFill=0;html=1;rounded=0;entryX=0.319;entryY=1.015;entryDx=0;entryDy=0;entryPerimeter=0;exitX=0.5;exitY=0;exitDx=0;exitDy=0;" edge="1" parent="1" source="sODCTmRWU-tELfm5_XwF-3" target="sODCTmRWU-tELfm5_XwF-7">
          <mxGeometry width="160" relative="1" as="geometry">
            <mxPoint x="153" y="570" as="sourcePoint" />
            <mxPoint x="557" y="580" as="targetPoint" />
            <Array as="points" />
          </mxGeometry>
        </mxCell>
        <mxCell id="sODCTmRWU-tELfm5_XwF-3" value="Etudiant" style="swimlane;fontStyle=0;childLayout=stackLayout;horizontal=1;startSize=26;fillColor=none;horizontalStack=0;resizeParent=1;resizeParentMax=0;resizeLast=0;collapsible=1;marginBottom=0;whiteSpace=wrap;html=1;" vertex="1" parent="1">
          <mxGeometry x="-3" y="550" width="150" height="78" as="geometry" />
        </mxCell>
        <mxCell id="sODCTmRWU-tELfm5_XwF-4" value="NumeroEtudiant: Integer" style="text;strokeColor=none;fillColor=none;align=left;verticalAlign=top;spacingLeft=4;spacingRight=4;overflow=hidden;rotatable=0;points=[[0,0.5],[1,0.5]];portConstraint=eastwest;whiteSpace=wrap;html=1;" vertex="1" parent="sODCTmRWU-tELfm5_XwF-3">
          <mxGeometry y="26" width="150" height="26" as="geometry" />
        </mxCell>
        <mxCell id="sODCTmRWU-tELfm5_XwF-5" value="Niveau: Integer" style="text;strokeColor=none;fillColor=none;align=left;verticalAlign=top;spacingLeft=4;spacingRight=4;overflow=hidden;rotatable=0;points=[[0,0.5],[1,0.5]];portConstraint=eastwest;whiteSpace=wrap;html=1;" vertex="1" parent="sODCTmRWU-tELfm5_XwF-3">
          <mxGeometry y="52" width="150" height="26" as="geometry" />
        </mxCell>
        <mxCell id="sODCTmRWU-tELfm5_XwF-8" value="Extends" style="endArrow=block;endSize=16;endFill=0;html=1;rounded=0;entryX=0.661;entryY=1;entryDx=0;entryDy=0;entryPerimeter=0;exitX=0.416;exitY=0.012;exitDx=0;exitDy=0;exitPerimeter=0;" edge="1" parent="1" source="sODCTmRWU-tELfm5_XwF-9" target="sODCTmRWU-tELfm5_XwF-7">
          <mxGeometry width="160" relative="1" as="geometry">
            <mxPoint x="207" y="640" as="sourcePoint" />
            <mxPoint x="142" y="520" as="targetPoint" />
            <Array as="points" />
          </mxGeometry>
        </mxCell>
        <mxCell id="sODCTmRWU-tELfm5_XwF-9" value="Enseignant" style="swimlane;fontStyle=0;childLayout=stackLayout;horizontal=1;startSize=26;fillColor=none;horizontalStack=0;resizeParent=1;resizeParentMax=0;resizeLast=0;collapsible=1;marginBottom=0;whiteSpace=wrap;html=1;" vertex="1" parent="1">
          <mxGeometry x="167" y="550" width="140" height="52" as="geometry" />
        </mxCell>
        <mxCell id="sODCTmRWU-tELfm5_XwF-10" value="Specialité: String" style="text;strokeColor=none;fillColor=none;align=left;verticalAlign=top;spacingLeft=4;spacingRight=4;overflow=hidden;rotatable=0;points=[[0,0.5],[1,0.5]];portConstraint=eastwest;whiteSpace=wrap;html=1;" vertex="1" parent="sODCTmRWU-tELfm5_XwF-9">
          <mxGeometry y="26" width="140" height="26" as="geometry" />
        </mxCell>
        <mxCell id="sODCTmRWU-tELfm5_XwF-13" value="Extends" style="endArrow=block;endSize=16;endFill=0;html=1;rounded=0;entryX=0.43;entryY=1.108;entryDx=0;entryDy=0;entryPerimeter=0;exitX=0.591;exitY=-0.051;exitDx=0;exitDy=0;exitPerimeter=0;" edge="1" parent="1" source="sODCTmRWU-tELfm5_XwF-21" target="sODCTmRWU-tELfm5_XwF-19">
          <mxGeometry width="160" relative="1" as="geometry">
            <mxPoint x="527" y="550" as="sourcePoint" />
            <mxPoint x="587" y="460" as="targetPoint" />
            <Array as="points" />
          </mxGeometry>
        </mxCell>
        <mxCell id="sODCTmRWU-tELfm5_XwF-16" value="Evaluation" style="swimlane;fontStyle=0;childLayout=stackLayout;horizontal=1;startSize=26;fillColor=none;horizontalStack=0;resizeParent=1;resizeParentMax=0;resizeLast=0;collapsible=1;marginBottom=0;whiteSpace=wrap;html=1;" vertex="1" parent="1">
          <mxGeometry x="657" y="314" width="140" height="104" as="geometry" />
        </mxCell>
        <mxCell id="sODCTmRWU-tELfm5_XwF-17" value="Coefficient: float" style="text;strokeColor=none;fillColor=none;align=left;verticalAlign=top;spacingLeft=4;spacingRight=4;overflow=hidden;rotatable=0;points=[[0,0.5],[1,0.5]];portConstraint=eastwest;whiteSpace=wrap;html=1;" vertex="1" parent="sODCTmRWU-tELfm5_XwF-16">
          <mxGeometry y="26" width="140" height="26" as="geometry" />
        </mxCell>
        <mxCell id="sODCTmRWU-tELfm5_XwF-18" value="Type: String" style="text;strokeColor=none;fillColor=none;align=left;verticalAlign=top;spacingLeft=4;spacingRight=4;overflow=hidden;rotatable=0;points=[[0,0.5],[1,0.5]];portConstraint=eastwest;whiteSpace=wrap;html=1;" vertex="1" parent="sODCTmRWU-tELfm5_XwF-16">
          <mxGeometry y="52" width="140" height="26" as="geometry" />
        </mxCell>
        <mxCell id="sODCTmRWU-tELfm5_XwF-19" value="Date: date" style="text;strokeColor=none;fillColor=none;align=left;verticalAlign=top;spacingLeft=4;spacingRight=4;overflow=hidden;rotatable=0;points=[[0,0.5],[1,0.5]];portConstraint=eastwest;whiteSpace=wrap;html=1;" vertex="1" parent="sODCTmRWU-tELfm5_XwF-16">
          <mxGeometry y="78" width="140" height="26" as="geometry" />
        </mxCell>
        <mxCell id="sODCTmRWU-tELfm5_XwF-21" value="Examen" style="swimlane;fontStyle=0;childLayout=stackLayout;horizontal=1;startSize=26;fillColor=none;horizontalStack=0;resizeParent=1;resizeParentMax=0;resizeLast=0;collapsible=1;marginBottom=0;whiteSpace=wrap;html=1;" vertex="1" parent="1">
          <mxGeometry x="560" y="546" width="150" height="78" as="geometry" />
        </mxCell>
        <mxCell id="sODCTmRWU-tELfm5_XwF-22" value="Duree: string" style="text;strokeColor=none;fillColor=none;align=left;verticalAlign=top;spacingLeft=4;spacingRight=4;overflow=hidden;rotatable=0;points=[[0,0.5],[1,0.5]];portConstraint=eastwest;whiteSpace=wrap;html=1;" vertex="1" parent="sODCTmRWU-tELfm5_XwF-21">
          <mxGeometry y="26" width="150" height="26" as="geometry" />
        </mxCell>
        <mxCell id="sODCTmRWU-tELfm5_XwF-23" value="Modalité: string" style="text;strokeColor=none;fillColor=none;align=left;verticalAlign=top;spacingLeft=4;spacingRight=4;overflow=hidden;rotatable=0;points=[[0,0.5],[1,0.5]];portConstraint=eastwest;whiteSpace=wrap;html=1;" vertex="1" parent="sODCTmRWU-tELfm5_XwF-21">
          <mxGeometry y="52" width="150" height="26" as="geometry" />
        </mxCell>
        <mxCell id="sODCTmRWU-tELfm5_XwF-24" value="Projet" style="swimlane;fontStyle=0;childLayout=stackLayout;horizontal=1;startSize=26;fillColor=none;horizontalStack=0;resizeParent=1;resizeParentMax=0;resizeLast=0;collapsible=1;marginBottom=0;whiteSpace=wrap;html=1;" vertex="1" parent="1">
          <mxGeometry x="750" y="546" width="140" height="78" as="geometry" />
        </mxCell>
        <mxCell id="sODCTmRWU-tELfm5_XwF-25" value="DateDebut: date" style="text;strokeColor=none;fillColor=none;align=left;verticalAlign=top;spacingLeft=4;spacingRight=4;overflow=hidden;rotatable=0;points=[[0,0.5],[1,0.5]];portConstraint=eastwest;whiteSpace=wrap;html=1;" vertex="1" parent="sODCTmRWU-tELfm5_XwF-24">
          <mxGeometry y="26" width="140" height="26" as="geometry" />
        </mxCell>
        <mxCell id="sODCTmRWU-tELfm5_XwF-29" value="DateFin: date" style="text;strokeColor=none;fillColor=none;align=left;verticalAlign=top;spacingLeft=4;spacingRight=4;overflow=hidden;rotatable=0;points=[[0,0.5],[1,0.5]];portConstraint=eastwest;whiteSpace=wrap;html=1;" vertex="1" parent="sODCTmRWU-tELfm5_XwF-24">
          <mxGeometry y="52" width="140" height="26" as="geometry" />
        </mxCell>
        <mxCell id="sODCTmRWU-tELfm5_XwF-28" value="Extends" style="endArrow=block;endSize=16;endFill=0;html=1;rounded=0;entryX=0.67;entryY=1.138;entryDx=0;entryDy=0;entryPerimeter=0;exitX=0.053;exitY=-0.008;exitDx=0;exitDy=0;exitPerimeter=0;" edge="1" parent="1" source="sODCTmRWU-tELfm5_XwF-24" target="sODCTmRWU-tELfm5_XwF-19">
          <mxGeometry width="160" relative="1" as="geometry">
            <mxPoint x="687" y="547" as="sourcePoint" />
            <mxPoint x="637" y="460" as="targetPoint" />
            <Array as="points" />
          </mxGeometry>
        </mxCell>
        <mxCell id="sODCTmRWU-tELfm5_XwF-31" value="Cours" style="swimlane;fontStyle=0;childLayout=stackLayout;horizontal=1;startSize=26;fillColor=none;horizontalStack=0;resizeParent=1;resizeParentMax=0;resizeLast=0;collapsible=1;marginBottom=0;whiteSpace=wrap;html=1;" vertex="1" parent="1">
          <mxGeometry x="341" y="828" width="140" height="78" as="geometry" />
        </mxCell>
        <mxCell id="sODCTmRWU-tELfm5_XwF-32" value="TitreCours: string" style="text;strokeColor=none;fillColor=none;align=left;verticalAlign=top;spacingLeft=4;spacingRight=4;overflow=hidden;rotatable=0;points=[[0,0.5],[1,0.5]];portConstraint=eastwest;whiteSpace=wrap;html=1;" vertex="1" parent="sODCTmRWU-tELfm5_XwF-31">
          <mxGeometry y="26" width="140" height="26" as="geometry" />
        </mxCell>
        <mxCell id="sODCTmRWU-tELfm5_XwF-33" value="DescriptionCours: string" style="text;strokeColor=none;fillColor=none;align=left;verticalAlign=top;spacingLeft=4;spacingRight=4;overflow=hidden;rotatable=0;points=[[0,0.5],[1,0.5]];portConstraint=eastwest;whiteSpace=wrap;html=1;" vertex="1" parent="sODCTmRWU-tELfm5_XwF-31">
          <mxGeometry y="52" width="140" height="26" as="geometry" />
        </mxCell>
        <mxCell id="sODCTmRWU-tELfm5_XwF-35" value="Module" style="swimlane;fontStyle=0;childLayout=stackLayout;horizontal=1;startSize=26;fillColor=none;horizontalStack=0;resizeParent=1;resizeParentMax=0;resizeLast=0;collapsible=1;marginBottom=0;whiteSpace=wrap;html=1;" vertex="1" parent="1">
          <mxGeometry x="627" y="830" width="140" height="78" as="geometry" />
        </mxCell>
        <mxCell id="sODCTmRWU-tELfm5_XwF-36" value="NomModule: string" style="text;strokeColor=none;fillColor=none;align=left;verticalAlign=top;spacingLeft=4;spacingRight=4;overflow=hidden;rotatable=0;points=[[0,0.5],[1,0.5]];portConstraint=eastwest;whiteSpace=wrap;html=1;" vertex="1" parent="sODCTmRWU-tELfm5_XwF-35">
          <mxGeometry y="26" width="140" height="26" as="geometry" />
        </mxCell>
        <mxCell id="sODCTmRWU-tELfm5_XwF-62" value="&lt;b&gt;appartientA&lt;/b&gt;" style="html=1;verticalAlign=bottom;endArrow=block;curved=0;rounded=0;fillColor=#e51400;strokeColor=#B20000;entryX=0;entryY=0.5;entryDx=0;entryDy=0;" edge="1" parent="sODCTmRWU-tELfm5_XwF-35" target="sODCTmRWU-tELfm5_XwF-36">
          <mxGeometry x="0.338" y="-10" width="80" relative="1" as="geometry">
            <mxPoint x="-147" y="38.5" as="sourcePoint" />
            <mxPoint x="98" y="38.5" as="targetPoint" />
            <mxPoint as="offset" />
            <Array as="points">
              <mxPoint x="-147" y="38.5" />
            </Array>
          </mxGeometry>
        </mxCell>
        <mxCell id="sODCTmRWU-tELfm5_XwF-37" value="Crédits: Integer" style="text;strokeColor=none;fillColor=none;align=left;verticalAlign=top;spacingLeft=4;spacingRight=4;overflow=hidden;rotatable=0;points=[[0,0.5],[1,0.5]];portConstraint=eastwest;whiteSpace=wrap;html=1;" vertex="1" parent="sODCTmRWU-tELfm5_XwF-35">
          <mxGeometry y="52" width="140" height="26" as="geometry" />
        </mxCell>
        <mxCell id="sODCTmRWU-tELfm5_XwF-38" value="Semestre" style="swimlane;fontStyle=0;childLayout=stackLayout;horizontal=1;startSize=26;fillColor=none;horizontalStack=0;resizeParent=1;resizeParentMax=0;resizeLast=0;collapsible=1;marginBottom=0;whiteSpace=wrap;html=1;" vertex="1" parent="1">
          <mxGeometry x="100" y="960" width="170" height="78" as="geometry" />
        </mxCell>
        <mxCell id="sODCTmRWU-tELfm5_XwF-39" value="NumeroSemestre: integer" style="text;strokeColor=none;fillColor=none;align=left;verticalAlign=top;spacingLeft=4;spacingRight=4;overflow=hidden;rotatable=0;points=[[0,0.5],[1,0.5]];portConstraint=eastwest;whiteSpace=wrap;html=1;" vertex="1" parent="sODCTmRWU-tELfm5_XwF-38">
          <mxGeometry y="26" width="170" height="26" as="geometry" />
        </mxCell>
        <mxCell id="sODCTmRWU-tELfm5_XwF-40" value="Année: string" style="text;strokeColor=none;fillColor=none;align=left;verticalAlign=top;spacingLeft=4;spacingRight=4;overflow=hidden;rotatable=0;points=[[0,0.5],[1,0.5]];portConstraint=eastwest;whiteSpace=wrap;html=1;" vertex="1" parent="sODCTmRWU-tELfm5_XwF-38">
          <mxGeometry y="52" width="170" height="26" as="geometry" />
        </mxCell>
        <mxCell id="sODCTmRWU-tELfm5_XwF-41" value="Salle" style="swimlane;fontStyle=0;childLayout=stackLayout;horizontal=1;startSize=26;fillColor=none;horizontalStack=0;resizeParent=1;resizeParentMax=0;resizeLast=0;collapsible=1;marginBottom=0;whiteSpace=wrap;html=1;" vertex="1" parent="1">
          <mxGeometry x="487" y="960" width="140" height="78" as="geometry" />
        </mxCell>
        <mxCell id="sODCTmRWU-tELfm5_XwF-42" value="NumeroSalle: string" style="text;strokeColor=none;fillColor=none;align=left;verticalAlign=top;spacingLeft=4;spacingRight=4;overflow=hidden;rotatable=0;points=[[0,0.5],[1,0.5]];portConstraint=eastwest;whiteSpace=wrap;html=1;" vertex="1" parent="sODCTmRWU-tELfm5_XwF-41">
          <mxGeometry y="26" width="140" height="26" as="geometry" />
        </mxCell>
        <mxCell id="sODCTmRWU-tELfm5_XwF-43" value="capacité: integer" style="text;strokeColor=none;fillColor=none;align=left;verticalAlign=top;spacingLeft=4;spacingRight=4;overflow=hidden;rotatable=0;points=[[0,0.5],[1,0.5]];portConstraint=eastwest;whiteSpace=wrap;html=1;" vertex="1" parent="sODCTmRWU-tELfm5_XwF-41">
          <mxGeometry y="52" width="140" height="26" as="geometry" />
        </mxCell>
        <mxCell id="sODCTmRWU-tELfm5_XwF-44" value="Note" style="swimlane;fontStyle=0;childLayout=stackLayout;horizontal=1;startSize=26;fillColor=none;horizontalStack=0;resizeParent=1;resizeParentMax=0;resizeLast=0;collapsible=1;marginBottom=0;whiteSpace=wrap;html=1;" vertex="1" parent="1">
          <mxGeometry x="341" y="730" width="140" height="52" as="geometry" />
        </mxCell>
        <mxCell id="sODCTmRWU-tELfm5_XwF-45" value="Note: float" style="text;strokeColor=none;fillColor=none;align=left;verticalAlign=top;spacingLeft=4;spacingRight=4;overflow=hidden;rotatable=0;points=[[0,0.5],[1,0.5]];portConstraint=eastwest;whiteSpace=wrap;html=1;" vertex="1" parent="sODCTmRWU-tELfm5_XwF-44">
          <mxGeometry y="26" width="140" height="26" as="geometry" />
        </mxCell>
        <mxCell id="sODCTmRWU-tELfm5_XwF-47" value="Departement" style="swimlane;fontStyle=0;childLayout=stackLayout;horizontal=1;startSize=26;fillColor=none;horizontalStack=0;resizeParent=1;resizeParentMax=0;resizeLast=0;collapsible=1;marginBottom=0;whiteSpace=wrap;html=1;" vertex="1" parent="1">
          <mxGeometry x="330" y="210" width="170" height="52" as="geometry" />
        </mxCell>
        <mxCell id="sODCTmRWU-tELfm5_XwF-48" value="NomDepartement: string" style="text;strokeColor=none;fillColor=none;align=left;verticalAlign=top;spacingLeft=4;spacingRight=4;overflow=hidden;rotatable=0;points=[[0,0.5],[1,0.5]];portConstraint=eastwest;whiteSpace=wrap;html=1;" vertex="1" parent="sODCTmRWU-tELfm5_XwF-47">
          <mxGeometry y="26" width="170" height="26" as="geometry" />
        </mxCell>
        <mxCell id="sODCTmRWU-tELfm5_XwF-51" value="&lt;b style=&quot;background-color: light-dark(#ffffff, var(--ge-dark-color, #121212));&quot;&gt;dirige (Chef de)&lt;/b&gt;" style="html=1;verticalAlign=bottom;endArrow=block;curved=0;rounded=0;fillColor=#e51400;strokeColor=#B20000;exitX=0.75;exitY=0;exitDx=0;exitDy=0;entryX=0.269;entryY=0.908;entryDx=0;entryDy=0;entryPerimeter=0;" edge="1" parent="1" source="sODCTmRWU-tELfm5_XwF-9" target="sODCTmRWU-tELfm5_XwF-48">
          <mxGeometry width="80" relative="1" as="geometry">
            <mxPoint x="330" y="450" as="sourcePoint" />
            <mxPoint x="370" y="270" as="targetPoint" />
          </mxGeometry>
        </mxCell>
        <mxCell id="sODCTmRWU-tELfm5_XwF-52" value="&lt;b&gt;estRattachéA&lt;/b&gt;" style="html=1;verticalAlign=bottom;endArrow=block;curved=0;rounded=0;fillColor=#e51400;strokeColor=#B20000;exitX=1.006;exitY=0.108;exitDx=0;exitDy=0;entryX=0.453;entryY=1.062;entryDx=0;entryDy=0;entryPerimeter=0;exitPerimeter=0;" edge="1" parent="1" source="sODCTmRWU-tELfm5_XwF-10" target="sODCTmRWU-tELfm5_XwF-48">
          <mxGeometry x="0.6617" y="-22" width="80" relative="1" as="geometry">
            <mxPoint x="282" y="560" as="sourcePoint" />
            <mxPoint x="386" y="270" as="targetPoint" />
            <mxPoint as="offset" />
          </mxGeometry>
        </mxCell>
        <mxCell id="sODCTmRWU-tELfm5_XwF-53" value="&lt;b&gt;estInscritA&lt;/b&gt;" style="html=1;verticalAlign=bottom;endArrow=block;curved=0;rounded=0;fillColor=#e51400;strokeColor=#B20000;entryX=0;entryY=0.5;entryDx=0;entryDy=0;exitX=0.205;exitY=0.01;exitDx=0;exitDy=0;exitPerimeter=0;" edge="1" parent="1" source="sODCTmRWU-tELfm5_XwF-3" target="sODCTmRWU-tELfm5_XwF-47">
          <mxGeometry x="0.6617" y="-22" width="80" relative="1" as="geometry">
            <mxPoint x="30" y="540" as="sourcePoint" />
            <mxPoint x="30" y="230" as="targetPoint" />
            <mxPoint as="offset" />
            <Array as="points">
              <mxPoint x="30" y="240" />
            </Array>
          </mxGeometry>
        </mxCell>
        <mxCell id="sODCTmRWU-tELfm5_XwF-54" value="&lt;b&gt;prépare&lt;/b&gt;" style="html=1;verticalAlign=bottom;endArrow=block;curved=0;rounded=0;fillColor=#e51400;strokeColor=#B20000;exitX=1;exitY=0.5;exitDx=0;exitDy=0;entryX=-0.026;entryY=0.231;entryDx=0;entryDy=0;entryPerimeter=0;" edge="1" parent="1" source="sODCTmRWU-tELfm5_XwF-10" target="sODCTmRWU-tELfm5_XwF-17">
          <mxGeometry x="0.6082" y="-8" width="80" relative="1" as="geometry">
            <mxPoint x="318" y="589" as="sourcePoint" />
            <mxPoint x="417" y="274" as="targetPoint" />
            <mxPoint as="offset" />
          </mxGeometry>
        </mxCell>
        <mxCell id="sODCTmRWU-tELfm5_XwF-55" value="&lt;b&gt;enseigne&lt;/b&gt;" style="html=1;verticalAlign=bottom;endArrow=block;curved=0;rounded=0;fillColor=#e51400;strokeColor=#B20000;exitX=0.531;exitY=1.062;exitDx=0;exitDy=0;exitPerimeter=0;entryX=0;entryY=0.25;entryDx=0;entryDy=0;" edge="1" parent="1" source="sODCTmRWU-tELfm5_XwF-10" target="sODCTmRWU-tELfm5_XwF-31">
          <mxGeometry x="0.6082" y="-8" width="80" relative="1" as="geometry">
            <mxPoint x="317" y="599" as="sourcePoint" />
            <mxPoint x="420" y="620" as="targetPoint" />
            <mxPoint as="offset" />
            <Array as="points">
              <mxPoint x="240" y="850" />
            </Array>
          </mxGeometry>
        </mxCell>
        <mxCell id="sODCTmRWU-tELfm5_XwF-57" value="&lt;b&gt;encadre&lt;/b&gt;" style="html=1;verticalAlign=bottom;endArrow=block;curved=0;rounded=0;fillColor=#e51400;strokeColor=#B20000;entryX=0.367;entryY=1.138;entryDx=0;entryDy=0;entryPerimeter=0;exitX=0.817;exitY=1;exitDx=0;exitDy=0;exitPerimeter=0;" edge="1" parent="1" source="sODCTmRWU-tELfm5_XwF-10" target="sODCTmRWU-tELfm5_XwF-29">
          <mxGeometry x="0.6082" y="-8" width="80" relative="1" as="geometry">
            <mxPoint x="280" y="611" as="sourcePoint" />
            <mxPoint x="351" y="858" as="targetPoint" />
            <mxPoint as="offset" />
            <Array as="points">
              <mxPoint x="280" y="680" />
              <mxPoint x="801" y="680" />
            </Array>
          </mxGeometry>
        </mxCell>
        <mxCell id="sODCTmRWU-tELfm5_XwF-58" value="&lt;b&gt;suit&lt;/b&gt;" style="html=1;verticalAlign=bottom;endArrow=block;curved=0;rounded=0;fillColor=#e51400;strokeColor=#B20000;exitX=0.653;exitY=1.138;exitDx=0;exitDy=0;exitPerimeter=0;" edge="1" parent="1" source="sODCTmRWU-tELfm5_XwF-5">
          <mxGeometry x="0.338" y="-10" width="80" relative="1" as="geometry">
            <mxPoint x="251" y="614" as="sourcePoint" />
            <mxPoint x="340" y="880" as="targetPoint" />
            <mxPoint as="offset" />
            <Array as="points">
              <mxPoint x="95" y="880" />
            </Array>
          </mxGeometry>
        </mxCell>
        <mxCell id="sODCTmRWU-tELfm5_XwF-59" value="&lt;b&gt;realise&lt;/b&gt;" style="html=1;verticalAlign=bottom;endArrow=block;curved=0;rounded=0;fillColor=#e51400;strokeColor=#B20000;exitX=0.287;exitY=1.108;exitDx=0;exitDy=0;exitPerimeter=0;entryX=0.613;entryY=1.138;entryDx=0;entryDy=0;entryPerimeter=0;" edge="1" parent="1" source="sODCTmRWU-tELfm5_XwF-5" target="sODCTmRWU-tELfm5_XwF-29">
          <mxGeometry x="0.4297" y="-10" width="80" relative="1" as="geometry">
            <mxPoint x="290" y="610" as="sourcePoint" />
            <mxPoint x="811" y="638" as="targetPoint" />
            <mxPoint as="offset" />
            <Array as="points">
              <mxPoint x="40" y="700" />
              <mxPoint x="836" y="700" />
            </Array>
          </mxGeometry>
        </mxCell>
        <mxCell id="sODCTmRWU-tELfm5_XwF-60" value="&lt;b&gt;recoit&lt;/b&gt;" style="html=1;verticalAlign=bottom;endArrow=block;curved=0;rounded=0;fillColor=#e51400;strokeColor=#B20000;exitX=0.845;exitY=1.108;exitDx=0;exitDy=0;exitPerimeter=0;entryX=-0.009;entryY=0.077;entryDx=0;entryDy=0;entryPerimeter=0;" edge="1" parent="1" source="sODCTmRWU-tELfm5_XwF-5" target="sODCTmRWU-tELfm5_XwF-45">
          <mxGeometry x="0.338" y="-10" width="80" relative="1" as="geometry">
            <mxPoint x="105" y="642" as="sourcePoint" />
            <mxPoint x="350" y="880" as="targetPoint" />
            <mxPoint as="offset" />
            <Array as="points">
              <mxPoint x="124" y="758" />
            </Array>
          </mxGeometry>
        </mxCell>
        <mxCell id="sODCTmRWU-tELfm5_XwF-64" value="&lt;b&gt;seDeroulePendant&lt;/b&gt;" style="html=1;verticalAlign=bottom;endArrow=block;curved=0;rounded=0;fillColor=#e51400;strokeColor=#B20000;entryX=1;entryY=0.25;entryDx=0;entryDy=0;exitX=0.415;exitY=1.046;exitDx=0;exitDy=0;exitPerimeter=0;" edge="1" parent="1" source="sODCTmRWU-tELfm5_XwF-33" target="sODCTmRWU-tELfm5_XwF-38">
          <mxGeometry x="0.3243" width="80" relative="1" as="geometry">
            <mxPoint x="490" y="878.5" as="sourcePoint" />
            <mxPoint x="637" y="879" as="targetPoint" />
            <mxPoint as="offset" />
            <Array as="points">
              <mxPoint x="400" y="980" />
            </Array>
          </mxGeometry>
        </mxCell>
        <mxCell id="sODCTmRWU-tELfm5_XwF-65" value="&lt;b&gt;seDerouleDans&lt;/b&gt;" style="html=1;verticalAlign=bottom;endArrow=block;curved=0;rounded=0;fillColor=#e51400;strokeColor=#B20000;entryX=0;entryY=0.31;entryDx=0;entryDy=0;exitX=0.567;exitY=1.062;exitDx=0;exitDy=0;exitPerimeter=0;entryPerimeter=0;" edge="1" parent="1" source="sODCTmRWU-tELfm5_XwF-33" target="sODCTmRWU-tELfm5_XwF-43">
          <mxGeometry x="0.476" width="80" relative="1" as="geometry">
            <mxPoint x="410" y="913" as="sourcePoint" />
            <mxPoint x="280" y="990" as="targetPoint" />
            <mxPoint as="offset" />
            <Array as="points">
              <mxPoint x="420" y="1020" />
            </Array>
          </mxGeometry>
        </mxCell>
        <mxCell id="sODCTmRWU-tELfm5_XwF-66" value="&lt;b&gt;estEvaluéPar&lt;/b&gt;" style="html=1;verticalAlign=bottom;endArrow=block;curved=0;rounded=0;fillColor=#e51400;strokeColor=#B20000;entryX=1;entryY=0.5;entryDx=0;entryDy=0;" edge="1" parent="1" target="sODCTmRWU-tELfm5_XwF-17">
          <mxGeometry x="0.338" y="-10" width="80" relative="1" as="geometry">
            <mxPoint x="440" y="829" as="sourcePoint" />
            <mxPoint x="950" y="370" as="targetPoint" />
            <mxPoint as="offset" />
            <Array as="points">
              <mxPoint x="440" y="800" />
              <mxPoint x="720" y="800" />
              <mxPoint x="950" y="800" />
              <mxPoint x="950" y="353" />
            </Array>
          </mxGeometry>
        </mxCell>
        <mxCell id="sODCTmRWU-tELfm5_XwF-67" value="&lt;b&gt;attribue&lt;/b&gt;" style="html=1;verticalAlign=bottom;endArrow=block;curved=0;rounded=0;fillColor=#e51400;strokeColor=#B20000;entryX=0.007;entryY=-0.032;entryDx=0;entryDy=0;entryPerimeter=0;exitX=0.323;exitY=0;exitDx=0;exitDy=0;exitPerimeter=0;" edge="1" parent="1" source="sODCTmRWU-tELfm5_XwF-44" target="sODCTmRWU-tELfm5_XwF-19">
          <mxGeometry x="0.338" y="-10" width="80" relative="1" as="geometry">
            <mxPoint x="393" y="725" as="sourcePoint" />
            <mxPoint x="637" y="400" as="targetPoint" />
            <mxPoint as="offset" />
            <Array as="points">
              <mxPoint x="390" y="725" />
            </Array>
          </mxGeometry>
        </mxCell>
      </root>
    </mxGraphModel>
  </diagram>
</mxfile>
